name C:/MyDriveSym/Projects/mobilecap/Data\Session20210813_0002\mocap\ForceDataProcessed\walkingTS4_forces.mot
datacolumns 19
datarows 12
range 0.00000000 0.00550000
endheader 
time	R_ground_force_vx	R_ground_force_vy	R_ground_force_vz	R_ground_force_px	R_ground_force_py	R_ground_force_pz	R_ground_torque_x	R_ground_torque_y	R_ground_torque_z	L_ground_force_vx	L_ground_force_vy	L_ground_force_vz	L_ground_force_px	L_ground_force_py	L_ground_force_pz	L_ground_torque_x	L_ground_torque_y	L_ground_torque_z	
          0.00000000	        -26.90100600	        327.96194500	         16.47232500	          0.09509700	          0.00600000	         -0.19941500	          0.00000000	          0.19941700	          0.00000000	          0.00000000	          0.00000000	          0.00000000	          0.70866800	          0.00000000	         -0.24884000	          0.00000000	          0.00000000	          0.00000000	
          0.00050000	        -27.47330700	        329.36832900	         16.46530400	          0.09509700	          0.00600000	         -0.19941500	          0.00000000	          0.19736900	          0.00000000	          0.00000000	          0.00000000	          0.00000000	          0.70866800	          0.00000000	         -0.24884000	          0.00000000	          0.00000000	          0.00000000	
          0.00100000	        -28.04758000	        330.78203000	         16.45701600	          0.09509700	          0.00600000	         -0.19941500	          0.00000000	          0.19528800	          0.00000000	          0.00000000	          0.00000000	          0.00000000	          0.70866800	          0.00000000	         -0.24884000	          0.00000000	          0.00000000	          0.00000000	
          0.00150000	        -28.62377100	        332.20295700	         16.44744200	          0.09509700	          0.00600000	         -0.19941500	          0.00000000	          0.19317300	          0.00000000	          0.00000000	          0.00000000	          0.00000000	          0.70866800	          0.00000000	         -0.24884000	          0.00000000	          0.00000000	          0.00000000	
          0.00200000	        -29.20182400	        333.63101600	         16.43656000	          0.09533900	          0.00600000	         -0.19938500	          0.00000000	          0.19102500	          0.00000000	          0.00000000	          0.00000000	          0.00000000	          0.70866800	          0.00000000	         -0.24884000	          0.00000000	          0.00000000	          0.00000000	
          0.00250000	        -29.78168200	        335.06611400	         16.42434800	          0.09558100	          0.00600000	         -0.19935400	          0.00000000	          0.18884300	          0.00000000	          0.00000000	          0.00000000	          0.00000000	          0.70866800	          0.00000000	         -0.24884000	          0.00000000	          0.00000000	          0.00000000	
          0.00300000	        -30.36328700	        336.50815300	         16.41078500	          0.09582400	          0.00600000	         -0.19932200	          0.00000000	          0.18662800	          0.00000000	          0.00000000	          0.00000000	          0.00000000	          0.70866800	          0.00000000	         -0.24884000	          0.00000000	          0.00000000	          0.00000000	
          0.00350000	        -30.94658000	        337.95703600	         16.39584900	          0.09606700	          0.00600000	         -0.19929000	          0.00000000	          0.18437800	          0.00000000	          0.00000000	          0.00000000	          0.00000000	          0.70866800	          0.00000000	         -0.24884000	          0.00000000	          0.00000000	          0.00000000	
          0.00400000	        -31.53150300	        339.41266200	         16.37951900	          0.09631200	          0.00600000	         -0.19925700	          0.00000000	          0.18209500	          0.00000000	          0.00000000	          0.00000000	          0.00000000	          0.70866800	          0.00000000	         -0.24884000	          0.00000000	          0.00000000	          0.00000000	
          0.00450000	        -32.11799400	        340.87493000	         16.36177400	          0.09655600	          0.00600000	         -0.19922300	          0.00000000	          0.17977700	          0.00000000	          0.00000000	          0.00000000	          0.00000000	          0.70866800	          0.00000000	         -0.24884000	          0.00000000	          0.00000000	          0.00000000	
          0.00500000	        -32.70599300	        342.34373700	         16.34259100	          0.09680100	          0.00600000	         -0.19918800	          0.00000000	          0.17742500	          0.00000000	          0.00000000	          0.00000000	          0.00000000	          0.70866800	          0.00000000	         -0.24884000	          0.00000000	          0.00000000	          0.00000000	
          0.00550000	        -33.29543700	        343.81897800	         16.32195000	          0.09704700	          0.00600000	         -0.19915300	          0.00000000	          0.17503900	          0.00000000	          0.00000000	          0.00000000	          0.00000000	          0.70866800	          0.00000000	         -0.24884000	          0.00000000	          0.00000000	          0.00000000	
